<svg xmlns="http://www.w3.org/2000/svg" xmlns:xlink="http://www.w3.org/1999/xlink">
	<defs>
		<symbol id="icon-briefcase" viewBox="0 0 24 24">
			<path d="M16 20V4a2 2 0 0 0-2-2h-4a2 2 0 0 0-2 2v16" fill="none" stroke="currentColor" stroke-width="2" />
			<rect width="20" height="14" x="2" y="6" rx="2" fill="none" stroke="currentColor" stroke-width="2" />
		</symbol>
		<symbol id="icon-code" viewBox="0 0 24 24">
			<path d="M16 18l6-6-6-6M8 6L2 12l6 6" fill="none" stroke="currentColor" stroke-width="2" />
		</symbol>
		<symbol id="icon-github-outline" viewBox="0 0 24 24">
			<path
				d="M15 22v-4a4.8 4.8 0 0 0-1-3.5c3 0 6-2 6-5.5a5.4 5.4 0 0 0-1-3.5A7.4 7.4 0 0 0 19 2s-1 0-3 1.5c-2.64-.5-5.36-.5-8 0C6 2 5 2 5 2a6.92 6.92 0 0 0 0 3.5A5.4 5.4 0 0 0 4 9c0 3.5 3 5.5 6 5.5A4.72 4.72 0 0 0 9 18v4"
				fill="none" stroke="currentColor" stroke-width="2" />
			<path d="M9 18c-4.51 2-5-2-7-2" fill="none" stroke="currentColor" stroke-width="2" />
		</symbol>
		<symbol id="icon-github" viewBox="0 0 24 24">
			<path
				d="M12 .3a12 12 0 0 0-3.8 23.38c.6.12.83-.26.83-.57L9 21.07c-3.34.72-4.04-1.61-4.04-1.61-.55-1.39-1.34-1.76-1.34-1.76-1.08-.74.09-.73.09-.73 1.2.09 1.83 1.24 1.83 1.24 1.07 1.83 2.81 1.3 3.5 1 .1-.78.42-1.31.76-1.61-2.67-.3-5.47-1.33-5.47-5.93 0-1.31.47-2.38 1.24-3.22-.14-.3-.54-1.52.1-3.18 0 0 1-.32 3.3 1.23a11.5 11.5 0 0 1 6 0c2.28-1.55 3.29-1.23 3.29-1.23.64 1.66.24 2.88.12 3.18a4.65 4.65 0 0 1 1.23 3.22c0 4.61-2.8 5.63-5.48 5.92.42.36.81 1.1.81 2.22l-.01 3.29c0 .31.2.69.82.57A12 12 0 0 0 12 .3"
				fill="currentColor" />
		</symbol>
		<symbol id="icon-linkedin" viewBox="0 0 24 24">
			<path d="M16 8a6 6 0 0 1 6 6v7h-4v-7a2 2 0 0 0-2-2 2 2 0 0 0-2 2v7h-4v-7a6 6 0 0 1 6-6zM2 9h4v12H2z"
				fill="none" stroke="currentColor" stroke-width="2" />
			<circle cx="4" cy="4" r="2" fill="none" stroke="currentColor" stroke-width="2" />
		</symbol>
		<symbol id="icon-mail" viewBox="0 0 24 24">
			<path d="M4 4h16a2 2 0 0 1 2 2v12a2 2 0 0 1-2 2H4a2 2 0 0 1-2-2V6c0-1.1.9-2 2-2Z" fill="none"
				stroke="currentColor" stroke-linejoin="round" stroke-width="1.5" />
			<path d="m22 7-9.1 4.55a2 2 0 0 1-1.8 0L2 7" fill="none" stroke="currentColor" stroke-linejoin="round"
				stroke-width="1.5" />
		</symbol>
		<symbol id="icon-link-square" viewBox="0 0 24 24">
			<path
				d="M2 5a3 3 0 0 1 3-3h5.5a1 1 0 0 1 0 2H5a1 1 0 0 0-1 1v14a1 1 0 0 0 1 1h14a1 1 0 0 0 1-1v-5.5a1 1 0 1 1 2 0V19a3 3 0 0 1-3 3H5a3 3 0 0 1-3-3V5Z"
				fill="currentColor" fill-rule="evenodd" clip-rule="evenodd" />
			<path
				d="M15.08 2.62A1 1 0 0 1 16 2h5a1 1 0 0 1 1 1v5a1 1 0 0 1-1.7.7l-1.8-1.79-6.8 6.8a1 1 0 0 1-1.4-1.42l6.79-6.79-1.8-1.8a1 1 0 0 1-.21-1.08Z"
				fill="currentColor" fill-rule="evenodd" clip-rule="evenodd" />
		</symbol>
		<symbol id="icon-user" viewBox="0 0 24 24">
			<path d="M19 21v-2a4 4 0 0 0-4-4H9a4 4 0 0 0-4 4v2" fill="none" stroke="currentColor" stroke-width="2" />
			<circle cx="12" cy="7" r="4" fill="none" stroke="currentColor" stroke-width="2" />
		</symbol>
		<symbol id="icon-moon" viewBox="0 0 24 24">
			<path d="M12 3a6 6 0 0 0 9 9 9 9 0 1 1-9-9Z" fill="none" stroke="currentColor" stroke-linecap="round"
				stroke-linejoin="round" stroke-width="2" />
		</symbol>
		<symbol id="icon-sun" viewBox="0 0 24 24">
			<circle cx="12" cy="12" r="4" fill="none" stroke="currentColor" stroke-linecap="round"
				stroke-linejoin="round" stroke-width="2" />
			<path
				d="M12 2v2m0 16v2M4.93 4.93l1.41 1.41m11.32 11.32 1.41 1.41M2 12h2m16 0h2M6.34 17.66l-1.41 1.41M19.07 4.93l-1.41 1.41"
				fill="none" stroke="currentColor" stroke-linecap="round" stroke-linejoin="round" stroke-width="2" />
		</symbol>
		<symbol id="icon-menu" viewBox="0 0 24 24">
			<path d="M4 12h16M4 6h16M4 18h16" fill="none" stroke="currentColor" stroke-linecap="round"
				stroke-linejoin="round" stroke-width="2" />
		</symbol>
		<symbol id="icon-x" viewBox="0 0 24 24">
			<path d="M6 18L18 6M6 6l12 12" fill="currentColour" stroke="currentColor" stroke-width="2"
				stroke-linecap="round" stroke-linejoin="round" />
		</symbol>
		<symbol id="icon-google" viewBox="-3 0 262 262">
			<path d="M256 133c0-10-1-18-3-26H131v48h71c-1 12-9 30-26 43v1l38 30h3c25-22 39-56 39-96" fill="#4285F4" />
			<path
				d="M131 261c35 0 64-12 86-32l-41-31c-11 7-26 13-45 13-35 0-64-23-75-55l-1 1-41 31v1c21 43 65 72 117 72"
				fill="#34A853" />
			<path d="M56 156a80 80 0 0 1 0-51v-2L15 71l-1 1a131 131 0 0 0 0 117l42-33" fill="#FBBC05" />
			<path d="M131 50c24 0 41 11 50 20l37-36A130 130 0 0 0 14 72l42 33c11-32 40-55 75-55" fill="#EB4335" />
		</symbol>
	</defs>
</svg>